<svg width="24" height="25" viewBox="0 0 24 25" fill="none" xmlns="http://www.w3.org/2000/svg">
<path d="M16.6356 14.491L17.0916 14.038L16.0326 12.974L15.5786 13.427L16.6356 14.491ZM18.6206 13.848L20.5316 14.887L21.2466 13.569L19.3366 12.531L18.6206 13.848ZM20.8986 16.951L19.4786 18.364L20.5356 19.427L21.9556 18.015L20.8986 16.951ZM18.6126 18.818C17.1626 18.954 13.4126 18.833 9.35058 14.795L8.29258 15.858C12.7246 20.265 16.9436 20.481 18.7526 20.312L18.6126 18.818ZM9.35058 14.795C5.47958 10.945 4.83758 7.708 4.75758 6.303L3.25958 6.388C3.35958 8.156 4.15458 11.744 8.29258 15.858L9.35058 14.795ZM10.7256 8.615L11.0126 8.329L9.95658 7.266L9.66958 7.551L10.7256 8.615ZM11.2406 4.694L9.98058 3.01L8.77958 3.91L10.0396 5.593L11.2406 4.694ZM5.73958 2.643L4.16958 4.203L5.22758 5.267L6.79658 3.707L5.73958 2.643ZM10.1976 8.083C9.66758 7.551 9.66758 7.551 9.66758 7.553H9.66558L9.66258 7.557C9.61537 7.60519 9.57284 7.65775 9.53558 7.714C9.48158 7.794 9.42258 7.899 9.37258 8.032C9.25081 8.37531 9.22049 8.74441 9.28458 9.103C9.41858 9.968 10.0146 11.111 11.5406 12.629L12.5986 11.565C11.1696 10.145 10.8296 9.281 10.7666 8.873C10.7366 8.679 10.7676 8.583 10.7766 8.561C10.7816 8.547 10.7836 8.546 10.7766 8.555C10.7678 8.56886 10.7577 8.58192 10.7466 8.594L10.7366 8.604C10.7333 8.60711 10.73 8.61011 10.7266 8.613L10.1976 8.083ZM11.5406 12.629C13.0676 14.147 14.2166 14.739 15.0826 14.871C15.5256 14.939 15.8826 14.885 16.1536 14.784C16.3051 14.7279 16.4469 14.6483 16.5736 14.548C16.5908 14.5336 16.6075 14.5186 16.6236 14.503L16.6306 14.497L16.6336 14.494L16.6346 14.492C16.6346 14.492 16.6356 14.491 16.1066 13.959C15.5766 13.427 15.5796 13.426 15.5796 13.426L15.5816 13.424L15.5836 13.422L15.5896 13.417L15.5996 13.407C15.6116 13.3962 15.6243 13.3862 15.6376 13.377C15.6476 13.37 15.6446 13.373 15.6306 13.379C15.6056 13.388 15.5076 13.419 15.3106 13.389C14.8966 13.325 14.0266 12.985 12.5986 11.565L11.5406 12.629ZM9.98058 3.009C8.96058 1.649 6.95658 1.433 5.73958 2.643L6.79658 3.707C7.32858 3.178 8.27258 3.233 8.77958 3.91L9.98058 3.009ZM4.75858 6.304C4.73858 5.958 4.89758 5.596 5.22758 5.268L4.16858 4.204C3.63158 4.738 3.20858 5.494 3.25958 6.388L4.75858 6.304ZM19.4786 18.364C19.2046 18.638 18.9086 18.792 18.6136 18.819L18.7526 20.312C19.4876 20.243 20.0886 19.873 20.5366 19.428L19.4786 18.364ZM11.0126 8.329C11.9976 7.35 12.0706 5.803 11.2416 4.695L10.0406 5.594C10.4436 6.133 10.3836 6.84 9.95558 7.267L11.0126 8.329ZM20.5326 14.888C21.3496 15.332 21.4766 16.378 20.8996 16.952L21.9576 18.015C23.2976 16.682 22.8846 14.459 21.2476 13.57L20.5326 14.888ZM17.0916 14.039C17.4756 13.657 18.0936 13.563 18.6216 13.849L19.3376 12.532C18.2536 11.942 16.9096 12.105 16.0336 12.975L17.0916 14.039Z" fill="black"/>
</svg>
