<svg width="38" height="26" viewBox="0 0 38 26" fill="none" xmlns="http://www.w3.org/2000/svg">
<path d="M30.8816 24.3375C33.5015 24.3375 35.6316 22.9361 35.6316 21.2125V5.58746C35.6316 3.86383 33.5015 2.46246 30.8816 2.46246H7.13159C4.51167 2.46246 2.38159 3.86383 2.38159 5.58746V21.2125C2.38159 22.9361 4.51167 24.3375 7.13159 24.3375H30.8816ZM19.0066 18.0875C18.5093 18.0875 18.0417 17.9507 17.7003 17.7115L9.98159 12.2427C9.49917 11.9009 9.373 11.4029 9.65503 10.9781C9.93706 10.5533 10.5828 10.275 11.2878 10.275H26.7253C27.4304 10.275 28.0761 10.5533 28.3582 10.9781C28.6402 11.4029 28.514 11.9009 28.0316 12.2427L20.3128 17.7115C19.9789 17.9507 19.5039 18.0875 19.0066 18.0875Z" fill="#2D2D2D"/>
</svg>
